<svg id="Layer_1" data-name="Layer 1" xmlns="http://www.w3.org/2000/svg" xmlns:xlink="http://www.w3.org/1999/xlink" viewBox="0 0 810.03 843.444"><defs><style>.cls-1{fill:url(#linear-gradient);}.cls-2{fill:url(#linear-gradient-2);}.cls-3{fill:url(#linear-gradient-3);}.cls-4{fill:url(#linear-gradient-4);}.cls-5{fill:url(#linear-gradient-5);}.cls-6{fill:url(#linear-gradient-6);}.cls-7{fill:url(#linear-gradient-7);}.cls-8{fill:url(#linear-gradient-8);}.cls-9{fill:url(#linear-gradient-9);}.cls-10{fill:url(#linear-gradient-10);}.cls-11{fill:url(#linear-gradient-11);}.cls-12{fill:url(#linear-gradient-12);}.cls-13{fill:url(#linear-gradient-13);}.cls-14{fill:url(#linear-gradient-14);}.cls-15{fill:#1997c7;}.cls-16{fill:#19a0da;}.cls-17{fill:url(#linear-gradient-15);}.cls-18{fill:url(#linear-gradient-16);}.cls-19{fill:url(#linear-gradient-17);}.cls-20{fill:url(#linear-gradient-18);}.cls-21{fill:url(#linear-gradient-19);}.cls-22{fill:url(#linear-gradient-20);}</style><linearGradient id="linear-gradient" x1="786.415" y1="781.084" x2="786.415" y2="623.04" gradientUnits="userSpaceOnUse"><stop offset="0" stop-color="#188eaf"/><stop offset="0.285" stop-color="#1893bc"/><stop offset="0.811" stop-color="#1aa1de"/><stop offset="1" stop-color="#1aa7ec"/></linearGradient><linearGradient id="linear-gradient-2" x1="142.565" y1="788.64" x2="142.565" y2="632.336" xlink:href="#linear-gradient"/><linearGradient id="linear-gradient-3" x1="282.403" y1="784.227" x2="282.403" y2="629.419" xlink:href="#linear-gradient"/><linearGradient id="linear-gradient-4" x1="393.57" y1="781.086" x2="393.57" y2="567.08" xlink:href="#linear-gradient"/><linearGradient id="linear-gradient-5" x1="618.303" y1="784.266" x2="618.303" y2="629.411" xlink:href="#linear-gradient"/><linearGradient id="linear-gradient-6" x1="481.375" y1="784.247" x2="481.375" y2="585.07" xlink:href="#linear-gradient"/><linearGradient id="linear-gradient-7" x1="174.734" y1="887.568" x2="174.734" y2="813.019" xlink:href="#linear-gradient"/><linearGradient id="linear-gradient-8" x1="263.946" y1="887.779" x2="263.946" y2="812.791" xlink:href="#linear-gradient"/><linearGradient id="linear-gradient-9" x1="353.941" y1="887.777" x2="353.941" y2="812.791" xlink:href="#linear-gradient"/><linearGradient id="linear-gradient-10" x1="442.344" y1="887.082" x2="442.344" y2="813.867" xlink:href="#linear-gradient"/><linearGradient id="linear-gradient-11" x1="515.865" y1="887.07" x2="515.865" y2="813.864" xlink:href="#linear-gradient"/><linearGradient id="linear-gradient-12" x1="591.175" y1="887.069" x2="591.175" y2="813.85" xlink:href="#linear-gradient"/><linearGradient id="linear-gradient-13" x1="696.457" y1="887.763" x2="696.457" y2="813.868" xlink:href="#linear-gradient"/><linearGradient id="linear-gradient-14" x1="772.165" y1="887.08" x2="772.165" y2="813.864" xlink:href="#linear-gradient"/><linearGradient id="linear-gradient-15" x1="381.834" y1="240.562" x2="391.378" y2="518.281" gradientUnits="userSpaceOnUse"><stop offset="0" stop-color="#1aa7ec"/><stop offset="0.189" stop-color="#1aa1de"/><stop offset="0.715" stop-color="#1893bc"/><stop offset="1" stop-color="#188eaf"/></linearGradient><linearGradient id="linear-gradient-16" x1="533.048" y1="241.086" x2="537.233" y2="514.465" xlink:href="#linear-gradient-15"/><linearGradient id="linear-gradient-17" x1="461.041" y1="551.08" x2="461.041" y2="497.807" gradientUnits="userSpaceOnUse"><stop offset="0" stop-color="#188eaf"/><stop offset="0.165" stop-color="#1995bf"/><stop offset="0.478" stop-color="#199fd8"/><stop offset="0.766" stop-color="#1aa5e7"/><stop offset="1" stop-color="#1aa7ec"/></linearGradient><linearGradient id="linear-gradient-18" x1="455.847" y1="234.673" x2="473.072" y2="360.479" gradientUnits="userSpaceOnUse"><stop offset="0.171" stop-color="#1aa7ec"/><stop offset="0.301" stop-color="#1aa6e9"/><stop offset="0.397" stop-color="#1aa2df"/><stop offset="0.483" stop-color="#199bcf"/><stop offset="0.563" stop-color="#1892b9"/><stop offset="0.59" stop-color="#188eaf"/></linearGradient><linearGradient id="linear-gradient-19" x1="433.666" y1="356.929" x2="460.183" y2="401.292" xlink:href="#linear-gradient-17"/><linearGradient id="linear-gradient-20" x1="506.227" y1="311.592" x2="468.016" y2="390.874" gradientUnits="userSpaceOnUse"><stop offset="0" stop-color="#1aa7ec"/><stop offset="0.234" stop-color="#1aa5e7"/><stop offset="0.522" stop-color="#199fd8"/><stop offset="0.835" stop-color="#1995bf"/><stop offset="1" stop-color="#188eaf"/></linearGradient></defs><path class="cls-1" d="M860.95,771c-4.82-9.93-4.6-21.3-5.2-32.06-.5-20.78.44-41.55.37-62.33-.14-5.6-.11-11.29-1.4-16.76l-.6-.1.26-.61c-.21-4.8-2.1-9.31-3.96-13.67a26.255,26.255,0,0,0-14.74-13.21,52.151,52.151,0,0,0-38.59,1.81,100.235,100.235,0,0,0-34.1,26.39c-.28-.08-.84-.23-1.12-.31.02-.83.05-2.48.07-3.31.51-11.27,1.53-22.52,1.52-33.8-3.23,1.8-5.17,5.12-8.02,7.39a100.645,100.645,0,0,1-52.37,23.29c1.06,3.01,3.97,5.19,6.15,7.5l.7.07-.15.57c5.03,6.74,5.71,15.33,5.94,23.45.24,4.15.19,8.31.42,12.46.04,17.78.22,35.57-.77,53.34a73.211,73.211,0,0,1-2.94,18.58l-.13-.01c-1.53,4.39-4.64,7.87-7.63,11.32,24.88.06,49.78.18,74.67-.06-3.87-2.83-7.57-6-9.58-10.47-3.51-8.37-4.16-17.52-4.76-26.46-.72-12.68-.86-25.39-.82-38.08.03-8.69.27-17.38.61-26.07.28-5.47.35-10.97.88-16.42l1.28-1.96-.05-.01c2.39-.55,4.49-2.04,6.89-2.66,7.54-2.16,16.17-1.85,22.94,2.44,4.91,3.95,7.01,10.07,8.26,16.03,1.49,7.73,1.82,15.6,2.31,23.44-.06,17.42.05,34.88-1.3,52.26-.69,7.16-1.49,14.55-4.78,21.06-1.36,2.92-4.15,4.7-6.34,6.93,24.96.06,49.93.09,74.89-.08C866.59,777.81,862.8,775.16,860.95,771Z" transform="translate(-59.73 -44.335)"/><path class="cls-2" d="M143.68,788.64c13.09-28.59,26.08-57.23,39.47-85.68,3.77-8.03,7.55-16.05,11.41-24.03q4.185-8.595,8.68-17.03c4.53-8.11,9.17-16.29,15.39-23.26,2-2.32,4.9-3.67,6.77-6.12-20.15-.3-40.32-.14-60.47-.08.04.27.12.8.16,1.07a35.74,35.74,0,0,1,12.68,8.59c4.36,4.48,6.41,10.54,7.4,16.59a75.2,75.2,0,0,1-2.35,19.18,186.489,186.489,0,0,1-8.49,24.77c-3.1,7.38-6.38,14.69-9.96,21.86q-5.58-10.035-10.69-20.32c-1.21-2.59-2.43-5.16-3.7-7.7-5.4-12.24-11.09-24.41-15.14-37.18l-.15-.01c-1.68-6.53-4.17-13.88-.83-20.31,1.52-3.26,5.78-3.54,7.62-6.5-22.48-.23-44.97-.04-67.46-.11-4.76.09-9.55-.29-14.29.33a49.428,49.428,0,0,1,7.29,6.88,165.052,165.052,0,0,1,10.63,17.76c1.57,2.93,2.94,5.96,4.65,8.81l.64.13-.19.58c3.71,8.26,8.12,16.22,12,24.41,15.9,32.27,31.2,64.83,46.57,97.35C141.91,788.63,143.09,788.64,143.68,788.64Z" transform="translate(-59.73 -44.335)"/><path class="cls-3" d="M243.14,772.83c14.88,9.82,33.43,12.65,50.93,10.92,13.36-1.29,26.53-6.94,35.67-16.93,11.92-12.77,16.8-30.5,18.02-47.55-.47-.25-1.41-.74-1.88-.99-4.82,14.01-16.09,26.11-30.68,29.87-12.45,2.99-26.81.88-36.61-7.8-8.54-7.5-12.75-18.57-15.08-29.42-.55-2.97-1.04-5.94-1.44-8.93-.09-.75-.25-2.27-.33-3.02q44.535-2.055,89.06-4.12a76.4,76.4,0,0,0-.57-25.82,53.057,53.057,0,0,0-2.56-8.14l-.66-.19.22-.58c-4.38-11.38-13.8-20.62-24.96-25.42-13.86-5.91-29.44-6.15-44.17-4.19-17.91,2.42-34.99,11.22-46.7,25.09-7.12,8.56-12.57,18.77-14.83,29.7l.29.56-.59.2c-1.55,4.79-1.96,9.86-2.61,14.84-.16,2.41-.3,4.82-.43,7.25a93.145,93.145,0,0,0,2.98,27.62A64.434,64.434,0,0,0,243.14,772.83Zm31.49-133.14c5.55-4.37,13.95-2.87,18.89,1.73,5.27,4.94,7.85,12.02,9.45,18.9a87.424,87.424,0,0,1,1.71,12.81c.04,4.56,1.09,9.79-1.81,13.75-2.77,3.6-7.75,3.5-11.84,3.76-9.87.31-19.72,1.37-29.58,1.33a45.853,45.853,0,0,1-.31-4.81c-.11-10.32.52-20.78,3.51-30.72C266.68,650.26,269.41,643.84,274.63,639.69Z" transform="translate(-59.73 -44.335)"/><path class="cls-4" d="M424.79,774.19c-3.99-6.66-4.95-14.55-5.69-22.12-1.32-19.69-1.27-39.44-1.48-59.16.02-7.83-.1-15.66-.06-23.49.04-3.17.08-6.33.06-9.49.28-27.97.54-56.01,3.31-83.86.11-2.99,1.39-6.06.37-8.99a74.1,74.1,0,0,1-15.62,12.54c-15.27,8.99-32.54,14.14-49.99,16.74,2.48,3.74,6.3,6.41,8.47,10.39,3.28,5.84,4.03,12.66,4.32,19.24.71,16.75.65,33.52.88,50.27-.17,4.8.02,9.61-.05,14.42-.04,21.15-.03,42.33-1.16,63.46l-.12-.02c-.65,9.6-2.09,20.54-10.28,26.83q36.84.285,73.7.01C429.25,778.68,426.38,777.01,424.79,774.19Z" transform="translate(-59.73 -44.335)"/><path class="cls-5" d="M617.03,784.2c20.36-.3,41.33-6.64,56.22-21.01,14.43-13.44,21.54-33.03,22.87-52.38a131.531,131.531,0,0,0-.45-23.73,75.159,75.159,0,0,0-8.22-26.58c-6.87-12.23-18.48-21.43-31.61-26.12-16.03-5.77-33.54-5.85-50.24-3.59-17.97,2.53-35.7,10.44-47.63,24.44a71.4,71.4,0,0,0-14.69,28.89,112.187,112.187,0,0,0-3.1,24.95c-.39,20.14,4.2,41.97,19.29,56.39C574.61,780.12,596.54,784.9,617.03,784.2ZM602.46,640.44c6.07-5.01,15.54-4.14,21.44.72,6.11,4.99,9.46,12.45,11.93,19.76a159.639,159.639,0,0,1,5.43,23.14,239.27,239.27,0,0,1,2.58,26.59,296.666,296.666,0,0,1-.61,36.15c-.61,6.35-1.46,12.75-3.74,18.74-2.14,5.21-6.53,9.98-12.4,10.57-6.68,1.12-13.23-2.29-17.38-7.37a54.341,54.341,0,0,1-8.58-17.1c-4.37-13.69-6.57-27.98-7.6-42.28-.72-9.82-.82-19.68-.64-29.52a166.285,166.285,0,0,1,2.1-23.69C596.08,650.43,597.86,644.34,602.46,640.44Z" transform="translate(-59.73 -44.335)"/><path class="cls-6" d="M520.4,773.08c10.53-11.53,12.91-28.12,13.26-43.12l-2.02-.6c-2.2,7.31-3.73,15.38-9.14,21.13-4.45,4.78-12.38,3.99-17.19.19-4.67-3.82-6.36-9.96-7.36-15.66-1.87-11.37-1.93-22.94-1.96-34.43-.03-7.28.12-14.57.18-21.84.1-5.62.23-11.24.35-16.85.1-3.81.2-7.62.41-11.42,10.77.05,21.55.01,32.33.02q2.64-9.06,5.26-18.12-18.69-.015-37.37,0c.41-15.79,1.97-31.53,2.49-47.31-1.97.44-2.73,2.44-3.81,3.9-15.11,23.34-35.16,44.02-60.09,56.82-2.53,1.45-5.54,2.26-7.51,4.54,6.49.36,13,.09,19.5.16.14,3.46.28,6.93.29,10.4q.075,9.825.01,19.66-.075,8.535-.16,17.08-.225,19.665-.42,39.33c.07,9.16.87,18.66,4.89,27.04l.7.3-.31.37a30.76,30.76,0,0,0,16.53,16.12c8.42,3.51,17.81,3.95,26.8,3.06C505.04,782.94,513.9,779.47,520.4,773.08Z" transform="translate(-59.73 -44.335)"/><path class="cls-7" d="M211,845.75q-19.41,0-38.82,0,.015,6.585,0,13.19c7.55.01,15.09-.03,22.63.02-1.23,2.87-2.58,5.79-4.9,7.96-6.44,6.23-17.13,6.15-24.57,1.82-7.26-4.42-9.51-13.71-8.56-21.67.53-6.59,4.33-13.1,10.5-15.84,7.67-3.39,18.34-1.94,22.82,5.81,6.56.04,13.13.01,19.69.01a31.111,31.111,0,0,0-10.36-16.41c-7.89-6.48-18.62-8.37-28.57-7.37a35.49,35.49,0,0,0-24.6,13.05c-10.87,13.99-10.6,35.85,1.11,49.26,9.42,10.82,25.29,14.16,38.85,10.65a35.819,35.819,0,0,0,22.59-18.44C212.69,861.08,210.38,853.07,211,845.75Z" transform="translate(-59.73 -44.335)"/><path class="cls-8" d="M287.98,820.96c-8.98-7.27-21.31-9.67-32.51-7.27a36.755,36.755,0,0,0-21.79,13.93c-10.71,14.16-9.53,35.99,2.89,48.75,11.77,12.54,32.34,14.94,47,6.22a36.306,36.306,0,0,0,17.16-24.48C303.45,844.64,298.99,829.56,287.98,820.96Zm-4.95,33.07a19.878,19.878,0,0,1-7.9,14.15c-5.09,3.6-11.92,4.02-17.77,2.27a18.142,18.142,0,0,1-11.74-12.89,29.78,29.78,0,0,1,.29-15.73,17.817,17.817,0,0,1,12.51-12.13c6.63-1.65,14.42-.45,19.23,4.72C282.64,839.53,283.87,847.18,283.03,854.03Z" transform="translate(-59.73 -44.335)"/><path class="cls-9" d="M378.53,821.41c-9.02-7.62-21.66-10.18-33.09-7.71a36.861,36.861,0,0,0-20.89,12.79c-11.45,13.93-10.79,36.21,1.55,49.38,11.37,12.6,31.5,15.43,46.27,7.39a36.192,36.192,0,0,0,17.7-22.3C393.92,847.02,389.95,830.71,378.53,821.41Zm-5.49,32.6a19.938,19.938,0,0,1-7.9,14.17c-5.09,3.59-11.9,4.02-17.75,2.28-6.1-1.88-10.58-7.41-11.94-13.54a28.912,28.912,0,0,1,1-16.55,17.62,17.62,0,0,1,12.09-10.7c6.57-1.6,14.27-.4,19.06,4.7C372.63,839.46,373.87,847.13,373.04,854.01Z" transform="translate(-59.73 -44.335)"/><path class="cls-10" d="M437.99,813.88c-9.53.01-19.05-.06-28.57.05q.045,36.54.01,73.1c10.21-.01,20.43.18,30.64-.11,12.6-.44,25.4-7.1,31.1-18.68,6.92-14.06,5.23-32.91-6.25-44.12C457.85,817.15,447.78,813.93,437.99,813.88Zm11.55,53.72c-6.37,4.79-14.73,3.9-22.22,3.97q-.03-21.225-.01-42.44c6.7.1,13.9-.8,20.02,2.59,5.94,3.06,9.26,9.66,9.59,16.18C457.57,855.06,455.71,863.22,449.54,867.6Z" transform="translate(-59.73 -44.335)"/><path class="cls-11" d="M493.42,813.92q.045,36.54,0,73.08c14.96.14,29.93.02,44.89.06V872.69q-13.5-.015-27,0c0-5.31.01-10.62,0-15.93,7.95-.03,15.91,0,23.87-.01.01-4.61,0-9.21,0-13.81-7.96-.01-15.91,0-23.87-.01V828.19q13.5-.015,27-.01v-14.3C523.35,813.9,508.38,813.81,493.42,813.92Z" transform="translate(-59.73 -44.335)"/><path class="cls-12" d="M606.05,859.06c-9.96-15.05-19.8-30.18-29.79-45.21-5.93.04-11.86.03-17.78.01-.11,24.37.02,48.75-.07,73.12,5.96.16,11.93.05,17.9.08.01-14.98-.02-29.96.02-44.93,9.97,14.93,19.79,29.97,29.73,44.93,5.96-.01,11.92,0,17.88,0V813.88q-8.94-.015-17.88,0Q606.045,836.47,606.05,859.06Z" transform="translate(-59.73 -44.335)"/><path class="cls-13" d="M703.42,813.94c.05,16.03-.02,32.06.04,48.1-.05,2.15,0,4.43-.98,6.42-2.07,4.32-9.08,4.38-11.53.42-1.21-1.91-1.3-4.23-1.64-6.38-5.91,0-11.81-.02-17.71.01.22,4.47.73,9.07,2.87,13.09,3.14,6.27,9.6,10.41,16.42,11.6,7.92,1.36,16.93.47,23.19-5.03,5.22-4.43,7.27-11.5,7.23-18.14q.015-25.08,0-50.15C715.34,813.9,709.38,813.81,703.42,813.94Z" transform="translate(-59.73 -44.335)"/><path class="cls-14" d="M797.95,846.96c4.23-8.53,2.67-19.91-4.44-26.45-5.25-4.8-12.55-6.65-19.51-6.64-10.2.04-20.39-.08-30.59.08q.06,36.51,0,73.04c5.97.14,11.93.04,17.9.07.02-9.23-.04-18.46.03-27.68,1.43.03,2.86.08,4.31.15,4.94,9.24,10.05,18.39,15.13,27.55,6.71-.05,13.42,0,20.14-.03q-8.385-14.475-16.84-28.91C789.87,856.29,795.31,852.6,797.95,846.96Zm-21.9-.67c-4.85.92-9.84.27-14.74.46.03-6.04-.06-12.06.06-18.09,5.17.28,10.48-.59,15.54.77C784.22,831.9,783.74,844.68,776.05,846.29Z" transform="translate(-59.73 -44.335)"/><polygon class="cls-15" points="541.018 201.747 549.289 205.329 549.472 207.659 545.245 207.457 541.018 201.747"/><path class="cls-16" d="M387.036,106.955l-.15-.15c-7.47,14.87-10.81,31.97-8.52,48.5,2.37,25.56,17.98,49.27,39.85,62.52a84.9,84.9,0,0,0,97.885-6.991,94.488,94.488,0,0,0,7.475-7.009,85.373,85.373,0,0,0,17.79-28.14c8.77-23.33,6.95-50.58-5.63-72.2A84.742,84.742,0,0,0,430.526,67a23.423,23.423,0,0,1-5.51,2.09,29.027,29.027,0,0,1-4.21-2.84c-11.2-8.35-23.32-15.37-35.64-21.91-3.43,3.33-7.28,6.19-10.69,9.55a140.119,140.119,0,0,0-19.35,23.41c12.76,6.05,25.51,12.41,36.87,20.85C390.386,101.115,388.366,103.845,387.036,106.955Zm33.43,33.44a42.262,42.262,0,0,1,45.8-36.81c18.61,1.56,34.89,16.87,37.56,35.35,2.2,12.21-1.93,25.19-10.08,34.42a41.967,41.967,0,0,1-71.22-14.08C420.216,153.265,420.046,146.745,420.466,140.4Z" transform="translate(-59.73 -44.335)"/><path class="cls-17" d="M460.956,497.807l-33.43,27.22a342.342,342.342,0,0,1-59.7-68.81c-.16-.25-20.52-34.61-28.12-52.72a342.205,342.205,0,0,1-21.4-71.68,331.494,331.494,0,0,1-5.27-71.22c.05-1.17.32-8.08.48-10.09a306.024,306.024,0,0,1,44.38-18.08c-2.5,18.01-2.72,36.2-2.33,54.34,1.2,13.13,2.43,26.26,4.82,39.23a299.482,299.482,0,0,0,19.58,63.42,276.862,276.862,0,0,0,17.84,34.47c3.36,5.55,14.41,21.61,16.35,24.22.64.87,5.81,7.42,5.81,7.42C431.5,470.037,460.956,497.807,460.956,497.807Z" transform="translate(-59.73 -44.335)"/><path class="cls-18" d="M609.046,287a340.709,340.709,0,0,1-25.88,115.17,334.724,334.724,0,0,1-88.61,122.85l-33.6-27.21s29.85-27.76,42.28-43.34a294.489,294.489,0,0,0,33.12-52.42,278.914,278.914,0,0,0,19.72-51.17,296.539,296.539,0,0,0,10.52-68.84c.34-9.05.02-18.1-.04-27.15-.53-7.82-1.44-15.6-2.23-23.39,13.65,4.67,27.22,9.95,40.31,15.77,1.22.55,2.85.92,3.8,1.89a1.72,1.72,0,0,1,.39.61,5,5,0,0,1,.23,1.6c.14,5.55.37,11.1.42,16.66C609.536,274.347,609.356,280.677,609.046,287Z" transform="translate(-59.73 -44.335)"/><path class="cls-19" d="M494.556,525.017v.01q-12.15,10.665-25.16,20.22-2.01,1.47-4.05,2.93c-.71.5-1.42,1-2.13,1.49a15.209,15.209,0,0,1-2.06,1.41c-4.68-3.13-9.19-6.52-13.72-9.87-6.85-5.07-13.51-10.53-19.91-16.18l33.43-27.22Z" transform="translate(-59.73 -44.335)"/><path class="cls-20" d="M524.606,255.817c-.19,15.04-.19,29.71-1.59,44.45v.01c-19.04,9.56-44.98,13.42-44.98,13.42-12.34,1.55-24.83.85-37.17-.42-14.21-2.05-28.31-5.37-41.61-10.87-1.84-14.52-1.56-29.27-1.61-43.9v-1.27c-.01-.84-.01-1.69-.02-2.53.01,0,0-1.46,0-1.46,3.46,2.33,6.8,4.95,10.59,6.72a128.6,128.6,0,0,0,42.88,11.42,121.426,121.426,0,0,0,56.17-7.68q4.545-1.74,8.96-3.77C517.176,259.5,524.6,256.627,524.606,255.817Z" transform="translate(-59.73 -44.335)"/><path class="cls-21" d="M461.346,363.687a.031.031,0,0,1-.01.02c-.28.68-9.34,22.67-26.33,40.58a250.315,250.315,0,0,1-15.35-29.2c-3.67-8.23-7.4-16.71-9.99-25.33-.24-.8,11.53-2.96,12.41-3.13,7.24-1.37,24.28-3.68,30.1-3.88,1.95,5.01,3.94,10.01,6.14,14.92A45.2,45.2,0,0,0,461.346,363.687Z" transform="translate(-59.73 -44.335)"/><path class="cls-22" d="M523.016,300.277c-.58,6.14-1.4,12.3-2.58,18.5a254.937,254.937,0,0,1-43.89,101.57,238.846,238.846,0,0,1-15.46,19.16q-8.145-9.33-15.43-19.31-5.67-7.755-10.65-15.91c16.99-17.91,26.05-39.9,26.33-40.58a.031.031,0,0,0,.01-.02c.7-1.12,6.35-14.69,7.46-17.69,2.23-5.97,4.33-12.02,6-18.18.36-1.3,3.14-13.06,3.23-14.12C478.036,313.7,503.976,309.837,523.016,300.277Z" transform="translate(-59.73 -44.335)"/></svg>